# xmcd CD database file
#
# Track frame offsets:
#	150
#	35909
#	65037
#	89096
#	109395
#	126422
#	147688
#	165180
#
# Disc length: 2582 seconds
#
# Revision: 1
# Processed by: cddbd v1.5.1PL2 Copyright (c) Steve Scherf et al.
# Submitted via: CDex 1.51
#
DISCID=800a1408
DTITLE=Vladimir Shafranov Trio - Movin' Vova!
DYEAR=2000
DGENRE=Jazz
TTITLE0=Namely You
TTITLE1=You And The Night And The Music
TTITLE2=For Heavens Sake
TTITLE3=Groove Yard
TTITLE4=Geta Way
TTITLE5=Beatiful Friendship
TTITLE6=But Beautiful
TTITLE7=Dexterity
EXTD=YEAR: 2000
EXTT0=
EXTT1=
EXTT2=
EXTT3=
EXTT4=
EXTT5=
EXTT6=
EXTT7=
PLAYORDER=
